<?xml version="1.0" encoding="utf-8"?>
<!-- Generator: Adobe Illustrator 23.0.0, SVG Export Plug-In . SVG Version: 6.00 Build 0)  -->
<svg version="1.1" id="Layer_1" xmlns="http://www.w3.org/2000/svg" xmlns:xlink="http://www.w3.org/1999/xlink" x="0px" y="0px"
	 viewBox="0 0 534.2 550.1" style="enable-background:new 0 0 534.2 550.1;" xml:space="preserve">
<style type="text/css">
	.st0{fill:#006FF2;}
	.st1{fill:#7FD858;}
</style>
<path class="st0" d="M16.7,282.3c2.5-22.5,20.8-41,43.3-43.6c15.5-1.8,29.8,3.5,40,13.1c13.2,12.4,31.5,17.6,49.6,16.1
	c23.1-1.8,51.9-4.1,70.5-5.5c12-0.9,22.8-7.6,29.1-17.9l0.4-0.6c6.2-10.2,7.2-22.7,2.6-33.6l-27.8-67c-6.7-16.3-19.8-29.3-36.4-35.3
	c-15.6-5.7-28.1-19.1-31.7-36.9c-5.1-25.1,10.8-50.8,35.5-57.7c26.9-7.4,54.5,8.7,61.4,35.6c2.9,11.5,1.6,23-3,33
	c-7.8,16.9-6.9,36.6,0.3,53.8l26.5,64c4.6,11.1,14.3,19.3,26,22.1l0.5,0.1c11.7,2.8,24-0.2,33.2-8l53.4-45.6
	c13.9-11.8,23.3-28.6,23.9-46.8c0.4-12.3,5.4-24.5,14.9-33.8c19.1-18.6,50.8-18.5,69.7,0.3c19.7,19.6,19.6,51.4-0.2,70.8
	c-11,10.8-25.7,15.4-39.9,13.9c-17.3-1.8-34.7,2.4-47.9,13.7l-56.7,48.5c-9.3,7.9-13.5,19.9-12.6,32.1c0.6,9.1-1.2,18.5-5.9,27.1
	c-5.8,10.6-14.9,18.2-25.3,22.3c-11.1,4.4-19,14.6-21.8,26.2l-17,70.8c-4.1,17-0.6,34.7,9,49.3c9.5,14.2,11.5,33.2,2.8,50.4
	c-9.1,18-29.1,28.9-49.2,26.7c-32.2-3.6-51.6-35-42.5-64.3c4-12.7,12.5-22.6,23.3-28.6c15.3-8.5,26.3-23.2,30.4-40.3
	c5.5-22.8,12.5-52.1,17-70.8c2.8-11.7-0.2-24-8-33.1l-0.3-0.4c-7.8-9.1-19.6-14-31.6-13l-72.6,5.7c-17.5,1.4-33.5,10-44.4,23.8
	c-9.1,11.6-23.2,19-39,19C36.7,337.7,13.3,312.3,16.7,282.3"/>
<path class="st1" d="M325.6,85.7c-27.4-0.9-50.4,20.6-51.3,48.1c-0.9,27.4,20.6,50.4,48.1,51.3c27.4,0.9,50.4-20.6,51.3-48.1
	C374.5,109.5,353,86.6,325.6,85.7"/>
</svg>
